<svg xmlns="http://www.w3.org/2000/svg" fill-rule="evenodd" stroke-linejoin="round" stroke-miterlimit="2" clip-rule="evenodd" viewBox="0 0 512 512">
    <g stroke="#000">
        <path fill="#E7A347" stroke-linecap="round" stroke-miterlimit="1.5" stroke-width="10.2463785" d="M369.848 172.407l25.3 25.3-16.129 87.233h-86.323l-1.368 221.058H188.74l-24.768-25.3C174.732 219.437 236.756 49.453 369.848 6l25.3 25.3v83.767h-60.563c-23.49 2.004-41.889 19.709-41.889 41.226v16.114h-25.3L142.152 259.64h21.29v25.3h-21.29l-25.3-25.3"/>
        <path fill="none" stroke-linecap="round" stroke-linejoin="miter" stroke-miterlimit="5" stroke-width="10.2463785" d="M368.722 88.078l26.426 26.99M369.848 60.964l25.3 25.864M369.848 34.485l25.3 25.864M334.459 89.768l24.68 25.3M301.162 90.767l24.64 25.3M280.464 102.283l24.89 25.54M268.067 123.95l25.186 25.92M267.397 155.03l25.3 25.973M365.863 193.964l25.184 25.917M361.922 215.28l25.183 25.919M357.605 238.816l25.153 25.886M353.403 259.779L378 284.939M269.914 262.309l22.777 23.44M296.092 259.64l24.583 25.3M325.57 259.64l24.585 25.3M266.82 291.196l25.48 26.22M266.453 322.586l25.846 26.6M266.82 352.735l25.297 26.031M266.248 382.455l25.682 26.342M266.453 411.954l25.09 25.755M266.248 445.342l25.295 25.968"/>
        <path fill="none" stroke-linecap="round" stroke-linejoin="miter" stroke-miterlimit="5" stroke-width="3.16" d="M171.395 60.523l7.667 7.891" transform="matrix(3.29997 0 0 3.1713 -299.564 288.307)"/>
        <path fill="none" stroke-linecap="round" stroke-linejoin="miter" stroke-miterlimit="5" stroke-width="3.16" d="M170.775 59.87l7.743 7.977" transform="matrix(3.29997 0 0 3.1713 -322.334 290.837)"/>
        <path fill="none" stroke-linecap="round" stroke-linejoin="miter" stroke-miterlimit="5" stroke-width="3.16" d="M170.767 59.87l7.751 7.977" transform="matrix(3.29997 0 0 3.1713 -347.634 290.837)"/>
        <path fill="none" stroke-linecap="round" stroke-linejoin="miter" stroke-miterlimit="5" stroke-width="3.16" d="M170.767 59.87l7.751 7.977" transform="matrix(3.29997 0 0 3.1713 -375.464 290.837)"/>
        <path fill="none" stroke-linecap="round" stroke-linejoin="miter" stroke-miterlimit="5" stroke-width="3.16" d="M169.708 58.772l7.959 8.19" transform="matrix(3.29997 0 0 3.1713 -416.004 73.26)"/>
        <path fill="#fff" stroke-linecap="square" stroke-miterlimit="1.5" stroke-width="10.237437600000002" d="M266.026 480.696l1.37-221.059h86.32l16.128-87.233H267.395v-41.13h0v-.283c0-21.517 18.398-39.223 41.888-41.223h60.561V5.999H231.085c-24.66 0-46.256 13.225-58.078 32.964-6.074 10.144-9.568 22.009-9.568 34.683v98.758h-46.59v87.233h46.59v221.059h102.587z"/>
    </g>
</svg>