<svg xmlns="http://www.w3.org/2000/svg" fill-rule="evenodd" stroke-linejoin="round" stroke-miterlimit="2" clip-rule="evenodd" viewBox="0 0 512 512">
    <path fill="#E7A347" stroke="#000" stroke-linecap="round" stroke-miterlimit="1.5" stroke-width="3.84" d="M76.877 93.988L66.32 84.179l-27.11 9.809-10.557 105.191 10.557 9.809h37.667v-115z" transform="matrix(2.55543 0 0 2.75013 -60.347 -68.746)"/>
    <path fill="#E7A347" stroke="#000" stroke-linecap="round" stroke-miterlimit="1.5" stroke-width="10.2029823" d="M298.364 231.343c19.146-35.807 137.009-54.77 137.009-54.77s13.66 11.444 33.301 30.393c22.625 21.825 36.868 55.734 36.868 90.94v208.092h-96.254l-26.726-26.976 26.726-62.978v-95.24c-3.234-35.102-30.227-53.149-52.712-53.149-27.328 0-55.06 13.864-58.212 56.903v181.44h-96.255l-26.976-26.976 26.976-289.289h96.255v41.61z"/>
    <path fill="#E7A347" stroke="#000" stroke-linecap="round" stroke-miterlimit="1.5" stroke-width="3.75" d="M64.645 39.423s7.132 7.115 10.882 10.716c3.915 3.758 6.35 9.024 6.35 14.849 0 11.407-9.335 20.667-20.833 20.667a20.848 20.848 0 01-14.551-5.882c-3.875-3.753-10.349-10.267-10.349-10.267l28.501-30.083z" transform="matrix(2.70613 0 0 2.72795 -75.379 -87.93)"/>
    <path fill="#fff" stroke="#000" stroke-linecap="round" stroke-miterlimit="1.5" stroke-width="3.84" transform="matrix(2.55543 0 0 2.75013 -87.324 -95.723)" d="M39.21 93.988h37.667v115H39.21z"/>
    <path fill="#fff" stroke="#000" stroke-linecap="round" stroke-miterlimit="1.5" stroke-width="10.2029823" d="M271.387 204.366c19.146-35.807 55.099-52.61 96.254-52.61 61.221 0 110.924 53.399 110.924 119.174V479.02h-96.254V293.827c-3.234-35.102-30.227-53.149-52.712-53.149-27.328 0-55.06 13.864-58.212 56.903v181.44h-96.255V162.756h96.255v41.61z"/>
    <ellipse cx="61.044" cy="64.988" fill="#fff" stroke="#000" stroke-linecap="round" stroke-miterlimit="1.5" stroke-width="3.75" rx="20.833" ry="20.667" transform="matrix(2.70613 0 0 2.72795 -102.356 -114.908)"/>
    <path fill="none" stroke="#000" stroke-linecap="round" stroke-linejoin="miter" stroke-miterlimit="5" stroke-width="10.1912597" d="M109.128 195.405l26.978 27.652M109.128 227.397l26.978 27.652M109.128 262.046l26.978 27.764M109.128 295.105l26.978 27.7M109.128 330.014l26.978 27.791M109.128 367.047l26.978 27.764M109.128 401.705l26.978 27.764M109.128 440.475l26.978 27.764M77.955 479.024L104.244 506M45.963 479.024L72.318 506M205.646 479.024L231.943 506M238.817 479.024L265.114 506"/>
    <path fill="none" stroke="#000" stroke-linecap="round" stroke-linejoin="miter" stroke-miterlimit="5" stroke-width="10.209768100000002" d="M271.387 446.731l26.977 27.672M271.387 414.74l26.977 27.671M271.387 382.866l26.977 27.643M271.387 349.852l26.977 27.762M271.387 317.979l26.977 27.628M272.29 289.656l26.074 26.741M279.458 267.6l26.759 27.381M294.202 250.87l26.643 27.217M314.72 242.163l26.428 27.093M415.15 481.7l19.718 20.291M447.318 481.7l19.718 20.291M478.563 448.093l26.926 27.608M478.563 417.105l26.978 27.66M478.563 388.23l26.926 27.6M478.563 359.138l26.978 27.66M478.563 327.246l26.926 27.708M478.563 296.257l26.978 27.762M478.563 266.514l26.926 27.708M474.119 237.448l27.376 27.95M456.438 199.532l31.221 31.797M342.068 242.44l26.067 26.733"/>
    <path fill="none" stroke="#000" stroke-linecap="round" stroke-linejoin="miter" stroke-miterlimit="5" stroke-width="10.1912597" d="M109.128 477.14l26.978 27.66M270.995 479.453l21.29 21.91M477.822 479.453l21.29 21.91"/>
    <path fill="none" stroke="#000" stroke-linecap="round" stroke-linejoin="miter" stroke-miterlimit="5" stroke-width="10.196675299999999" d="M111.674 90.546l26.69 27.468M90.061 111.747l26.583 27.196"/>
    <path fill="none" stroke="#000" stroke-linecap="round" stroke-linejoin="miter" stroke-miterlimit="5" stroke-width="10.1954519" d="M119.216 61.202l26.976 27.716M61.611 118.755l26.225 26.944"/>
</svg>