<svg xmlns="http://www.w3.org/2000/svg" fill-rule="evenodd" stroke-linejoin="round" stroke-miterlimit="2" clip-rule="evenodd" viewBox="0 0 512 512">
    <path fill="#E7A347" stroke="#000" stroke-linecap="round" stroke-miterlimit="1.5" stroke-width="10.2" d="M330.825 6l29 31c6.887 51.594 29.699 86.038 69.819 101.841 1.374.541 16.395-21.499 16.395-21.499s17.242 17.692 29 31v81.128c-39.265 3.797-77.032-3.892-111.714-35.237l-.127 169.573c-13.862 154.928-180.634 175.993-258.196 98.355-13.098-13.111-37.616-40.487-37.616-40.487s-1.589-39.246-1.589-57.868c-.409-80.513 139.643-183.149 139.643-183.149s14.383 14.549 29 30.19v80.659c-84.2-17.009-119.292 84.625-52.783 124.309 40.107 23.932 94.716.354 100.596-52.009L330.825 6z"/>
    <path fill="none" stroke="#000" stroke-linecap="round" stroke-miterlimit="1.5" stroke-width="10.2" d="M205.595 203.477l28.845 29.595M205.44 259.322l29 29.75M205.44 232.258l29 29.882M175.556 259.438l30.039 30.854M151.023 267.905l29.796 30.546M131.899 284.735l29.497 30.36M120.514 307.396l29.267 30.09M118.595 336.478l28.893 29.642M118.595 460.478l31.26 32.009M151.596 471.359l30.431 31.3M184.139 475.021l30.25 31M213.836 472.636l29.925 30.835M240.552 465.434l29.909 30.659M264.264 454.077L294 484.632M286.055 437.892l29.574 30.474M303.634 418.459l29.47 30.365M316.912 396.795l29.385 30.223M326.613 372.406l29.259 30.149M332.416 347.203l29.151 30.038M334.303 318.185l28.907 29.657M334.323 285.205l29 29.81M334.323 252.137l28.936 29.817M334.323 220.205l29 29.81M334.323 166.205l29 29.75M334.303 192.117l29.02 29.903M445.684 198.504l29.355 30.167M412.865 198.635l30.256 31.118M375.774 189.656l30.91 31.755M445.684 170.48l29.355 30.247M446.039 143.845l29 29.882M338.191 39.073l28.406 29.156"/>
    <path fill="#fff" stroke="#000" stroke-linecap="round" stroke-miterlimit="1.5" stroke-width="10.2" d="M253.565 6h77.26c9.158 68.611 46.479 106.892 115.214 111.342v81.128c-39.265 3.797-77.032-3.892-111.714-35.237l-.127 169.573c-18.116 202.475-297.401 176.315-297.401 0-.539-106.131 77.709-164.596 168.643-152.959v80.659c-84.2-17.009-119.292 84.625-52.783 124.309 40.107 23.932 94.716.354 100.596-52.009L253.565 6z"/>
</svg>